<svg width="14" height="14" viewBox="0 0 14 14" fill="none" xmlns="http://www.w3.org/2000/svg">
<path d="M12.8334 5.23841V10.5001C12.8334 11.1417 12.3084 11.6667 11.6667 11.6667H2.33341C1.69175 11.6667 1.16675 11.1417 1.16675 10.5001L1.17258 3.50008C1.17258 2.85841 1.69175 2.33341 2.33341 2.33341H8.22508C8.19008 2.52008 8.16675 2.71841 8.16675 2.91675C8.16675 3.11508 8.19008 3.31341 8.22508 3.50008H2.33341L7.00008 6.41675L9.14091 5.08091C9.41508 5.33175 9.73591 5.52425 10.0917 5.65258L7.00008 7.58341L2.33341 4.66675V10.5001H11.6667V5.77508C12.0984 5.68758 12.4951 5.49508 12.8334 5.23841ZM9.33341 2.91675C9.33341 3.88508 10.1151 4.66675 11.0834 4.66675C12.0517 4.66675 12.8334 3.88508 12.8334 2.91675C12.8334 1.94841 12.0517 1.16675 11.0834 1.16675C10.1151 1.16675 9.33341 1.94841 9.33341 2.91675Z" fill="white"/>
</svg>
