<svg width="20" height="20" viewBox="0 0 20 20" fill="none" xmlns="http://www.w3.org/2000/svg">
<path d="M5 20C7.76 20 10 18.5066 10 16.6666V13.3333H5C2.24 13.3333 0 14.8266 0 16.6666C0 18.5066 2.24 20 5 20Z" fill="#0ACF83"/>
<path d="M0 10C0 8.16002 2.24 6.66669 5 6.66669H10V13.3334H5C2.24 13.3334 0 11.84 0 10Z" fill="#A259FF"/>
<path d="M0 3.33333C0 1.49333 2.24 0 5 0H10V6.66667H5C2.24 6.66667 0 5.17333 0 3.33333Z" fill="#F24E1E"/>
<path d="M10 0H15C17.76 0 20 1.49333 20 3.33333C20 5.17333 17.76 6.66667 15 6.66667H10V0Z" fill="#FF7262"/>
<path d="M20 10C20 11.84 17.76 13.3334 15 13.3334C12.24 13.3334 10 11.84 10 10C10 8.16002 12.24 6.66669 15 6.66669C17.76 6.66669 20 8.16002 20 10Z" fill="#1ABCFE"/>
</svg>
