<svg width="20" height="20" viewBox="0 0 20 20" fill="none" xmlns="http://www.w3.org/2000/svg">
<path fill-rule="evenodd" clip-rule="evenodd" d="M10.0002 0C7.33329 0 5.66692 2.22237 4.9999 6.6671C6.00004 4.44474 7.16674 3.61151 8.49999 4.16678C9.26067 4.48351 9.80464 5.40347 10.4062 6.422C11.3867 8.08056 12.5217 10 15.0001 10C17.6666 10 19.3334 7.77763 20 3.33355C19.0003 5.55592 17.8336 6.38914 16.5003 5.83322C15.7392 5.51649 15.1953 4.59653 14.5937 3.57866C13.6132 1.91878 12.4786 0 10.0002 0ZM4.9999 10C2.33339 10 0.666627 12.2224 0 16.6671C1.00014 14.4447 2.16683 13.6115 3.4997 14.1668C4.26077 14.4835 4.80473 15.4035 5.40631 16.422C6.38685 18.0806 7.52141 20 10.0002 20C12.6667 20 14.3335 17.7783 15.0001 13.3336C14 15.5559 12.8333 16.3891 11.5 15.8339C10.7393 15.5165 10.1954 14.5965 9.59379 13.5787C8.61325 11.9201 7.4783 10 4.9999 10Z" fill="#38BDF8"/>
</svg>
